<?xml version="1.0" encoding="UTF-8" standalone="no"?>
<!-- Created with Inkscape (http://www.inkscape.org/) -->

<svg
   xmlns:dc="http://purl.org/dc/elements/1.1/"
   xmlns:cc="http://creativecommons.org/ns#"
   xmlns:rdf="http://www.w3.org/1999/02/22-rdf-syntax-ns#"
   xmlns:svg="http://www.w3.org/2000/svg"
   xmlns="http://www.w3.org/2000/svg"
   xmlns:sodipodi="http://sodipodi.sourceforge.net/DTD/sodipodi-0.dtd"
   xmlns:inkscape="http://www.inkscape.org/namespaces/inkscape"
   width="400"
   height="400"
   id="svg2"
   version="1.1"
   inkscape:version="0.48.5 r10040"
   sodipodi:docname="rcontrol.svg"
   inkscape:export-filename="/home/andre/rcontrol.png"
   inkscape:export-xdpi="57.599998"
   inkscape:export-ydpi="57.599998">
  <defs
     id="defs4" />
  <sodipodi:namedview
     id="base"
     pagecolor="#ffffff"
     bordercolor="#666666"
     borderopacity="1.0"
     inkscape:pageopacity="0.0"
     inkscape:pageshadow="2"
     inkscape:zoom="2"
     inkscape:cx="365.32716"
     inkscape:cy="215.19267"
     inkscape:document-units="px"
     inkscape:current-layer="layer1"
     showgrid="false"
     inkscape:window-width="1920"
     inkscape:window-height="1020"
     inkscape:window-x="0"
     inkscape:window-y="0"
     inkscape:window-maximized="1" />
  <metadata
     id="metadata7">
    <rdf:RDF>
      <cc:Work
         rdf:about="">
        <dc:format>image/svg+xml</dc:format>
        <dc:type
           rdf:resource="http://purl.org/dc/dcmitype/StillImage" />
        <dc:title></dc:title>
      </cc:Work>
    </rdf:RDF>
  </metadata>
  <g
     inkscape:label="Layer 1"
     inkscape:groupmode="layer"
     id="layer1"
     transform="translate(0,-652.36218)">
    <path
       style="fill:#8ab900;fill-opacity:1"
       d="m 3.4754494,1052.2576 -3.44680407,-0.3347 0,-28.5172 0,-28.51722 L 11.14002,981.63841 c 6.111253,-7.28753 11.122378,-13.73286 11.135818,-14.32294 0.01344,-0.59007 -4.986667,-5.30406 -11.11137,-10.47553 l -11.13582267,-9.40265 0,-80.31593 0,-80.31596 8.70049447,-10.46478 C 42.487836,735.73627 45.776988,732.13301 47.763793,733.57823 c 1.049323,0.76327 32.589321,27.28806 70.088917,58.94396 37.49958,31.65592 76.14725,64.27109 85.88368,72.47818 9.73644,8.20708 17.7221,15.40161 17.74591,15.98782 0.0779,1.91573 -107.98146,130.49541 -111.94271,133.20061 -10.691287,7.3012 -23.147191,5.709 -35.739371,-4.5684 -4.082933,-3.3323 -8.439211,-6.8758 -9.680618,-7.8743 -2.223488,-1.78838 -2.543616,-1.4707 -21.482794,21.3171 -10.574122,12.7229 -20.928756,24.2303 -23.010292,25.5719 -4.131658,2.6629 -10.7481486,4.1469 -16.1510656,3.6225 z M 243.52223,924.61019 c -6.39598,-2.35516 -10.75127,-6.263 -13.77381,-12.35872 -3.37533,-6.80731 -3.691,-15.04271 -0.80658,-21.04264 1.07494,-2.23599 18.7848,-24.23927 39.35522,-48.8962 34.18213,-40.97268 37.85652,-45.02779 42.69644,-47.12026 13.90831,-6.0131 27.74474,-0.41234 34.01393,13.76828 2.70252,6.11301 2.04037,15.36537 -1.52485,21.30664 -1.36704,2.27812 -12.26914,15.79991 -24.2269,30.04845 -11.95776,14.24854 -28.18425,33.60203 -36.05886,43.00777 -11.88657,14.19776 -15.29515,17.599 -20.07558,20.03244 -6.50668,3.31217 -12.89924,3.72127 -19.59901,1.25424 z M 206.21724,854.08338 C 193.9187,843.67355 163.65591,818.12937 138.96661,797.31855 114.27729,776.50772 84.641029,751.49869 73.10824,741.74292 l -20.968724,-17.73775 4.549952,-4.77232 c 5.947285,-6.23795 18.717471,-15.78136 26.062462,-19.47699 18.85959,-9.48921 43.31821,-13.22175 64.95315,-9.91224 4.5174,0.69103 8.47799,0.99055 8.80133,0.66561 0.32333,-0.32495 1.76707,-6.52288 3.20833,-13.77318 1.44126,-7.2503 3.12219,-15.70044 3.73538,-18.7781 0.96468,-4.84167 1.45018,-5.59575 3.60273,-5.59575 1.36831,0 2.68125,0.58321 2.91769,1.29602 0.23642,0.7128 -1.15931,8.98651 -3.10161,18.38601 -1.94229,9.3995 -3.4084,17.9682 -3.258,19.04157 0.1864,1.3303 2.63684,2.88388 7.69734,4.8801 18.8073,7.41899 32.06653,16.04642 45.40924,29.5466 8.3642,8.46292 18.91191,22.6088 22.09788,29.63618 0.68152,1.50328 1.64453,2.73322 2.13999,2.73322 0.49546,0 8.8376,-3.1532 18.53809,-7.00711 15.65984,-6.2215 17.81519,-6.82826 19.22448,-5.41192 0.87299,0.87734 1.33701,2.23191 1.03116,3.01014 -0.30584,0.77824 -8.48435,4.51535 -18.17446,8.30471 -19.05766,7.45256 -18.91293,7.32276 -15.99402,14.34359 5.96124,14.33858 7.6772,40.70482 3.86596,59.40171 -2.87345,14.09633 -10.79395,31.36484 -18.071,39.39895 l -2.79735,3.08838 -22.361,-18.92697 z m 14.20392,-53.02631 c 5.62541,-4.75712 4.6257,-13.66083 -1.91555,-17.06034 -4.38505,-2.27893 -8.7453,-1.26739 -12.17036,2.82339 -8.08495,9.65644 4.48219,22.35834 14.08591,14.23695 z m -80.18547,-68.8066 c 2.88652,-2.90093 3.17468,-3.76233 2.69358,-8.05192 -0.54885,-4.89371 -2.18166,-6.98907 -7.02453,-9.01445 -3.2196,-1.3465 -6.25508,-0.41544 -9.9352,3.04738 -6.3827,6.00581 -1.71386,17.26745 7.15875,17.26745 2.90509,0 4.68421,-0.81315 7.1074,-3.24846 z m -139.95622335,3.001 0.27945598,-35.4587 6.61074737,0.10208 c 5.348504,0.0826 7.569293,0.69764 11.630925,3.2213 10.697696,6.64693 15.04129,19.74846 10.318496,31.12357 -1.26783,3.05366 -14.312138,19.59339 -25.5957259,32.45451 L 0,770.71018 0.27946665,735.25149 z"
       id="path3000"
       inkscape:connector-curvature="0" />
    <g
       id="g2995"
       transform="matrix(0.90630779,0.42261826,-0.42261826,0.90630779,364.4209,-25.442159)">
      <path
         sodipodi:nodetypes="scssscssscccssscssscssssssssssssscssssssssssscccsssscsccsccsscssscccssssss"
         inkscape:connector-curvature="0"
         id="rect3908"
         d="m 298.31509,733.93151 c -1.65291,0.95662 -3.06306,2.35094 -3.8237,3.93966 -3.68669,7.69948 3.94153,16.45605 11.80509,13.57201 2.55019,-0.9353 4.72554,-2.91232 5.63275,-5.05629 1.23464,-2.91772 1.18172,-5.23352 -0.21084,-8.17768 -1.61643,-3.41744 -4.3466,-5.31832 -8.12229,-5.63073 -1.73666,-0.14367 -3.628,0.39658 -5.28101,1.35303 z m -6.76594,23.03104 c -3.69714,2.48921 -5.7963,7.29921 -2.69659,12.45437 2.30973,3.84138 6.06105,5.70009 10.41766,4.91893 2.58038,-0.54397 8.03972,-3.80013 7.61248,-9.62731 -0.72318,-6.78526 -6.2577,-10.20619 -11.23219,-9.39222 -1.45525,0.23815 -2.86898,0.8165 -4.10136,1.64623 z m 29.53555,-16.65542 c -5.18744,3.24883 -6.35936,11.3221 -0.69241,15.98821 4.48429,3.69234 11.26911,2.19231 14.27336,-3.15282 3.48846,-6.2069 -1.15722,-14.15959 -8.33115,-14.24257 -2.02363,-0.0234 -3.79728,0.49748 -5.24976,1.40715 z m -34.80464,38.9666 c -1.71412,1.07602 -3.12384,2.72063 -3.89315,4.88187 -1.03922,2.91933 -0.82378,5.32316 0.70217,7.96618 1.6557,2.86776 2.97507,3.95839 5.97113,4.77981 3.98471,1.09251 7.62501,-0.23094 10.03077,-3.6262 2.77288,-3.91345 2.56808,-8.5203 -0.51923,-12.14934 -3.2601,-3.83212 -8.52061,-4.21955 -12.29169,-1.85232 z m 28.95885,-16.46681 c -4.67144,2.91254 -6.52423,9.98792 -2.09305,14.81224 4.39192,4.78154 11.87732,4.0777 15.41286,-1.42915 3.56352,-5.55037 0.038,-13.11025 -6.7509,-14.50541 -2.48331,-0.51033 -4.74096,-0.0174 -6.56891,1.12232 z m 29.55147,-15.69034 c -2.06776,1.3079 -3.61707,3.48371 -4.20086,6.28639 -1.74848,8.39449 6.85199,14.51922 14.33281,10.20016 1.78854,-1.03261 2.76132,-2.04908 3.45737,-3.51166 1.34938,-2.83523 1.52565,-5.33416 0.55337,-8.04154 -1.15859,-3.22624 -3.23565,-5.0653 -6.77107,-5.97785 -2.73229,-0.70524 -5.30384,-0.26339 -7.37162,1.0445 z m -64.52574,54.86313 c -1.38104,0.87667 -2.58882,2.17778 -3.43644,3.86042 -1.46877,2.91572 -1.2829,6.10589 0.50271,9.30821 3.19889,5.73685 11.89021,6.25876 15.89252,0.96416 1.62204,-2.1458 2.37615,-6.53095 1.53796,-8.89867 -2.27231,-6.4188 -9.56438,-8.36495 -14.49675,-5.23412 z m 29.32629,-16.64286 c -3.99922,2.26137 -5.93131,7.36576 -4.34274,11.85314 1.81765,5.13446 8.98797,7.7913 13.75767,5.51648 4.7546,-3.17704 5.78822,-8.29879 4.12175,-12.73591 -1.89808,-4.8467 -7.79719,-7.19247 -12.69353,-5.04834 -0.28461,0.1246 -0.57656,0.26383 -0.84315,0.41463 z m 29.40054,-15.63929 c -0.70092,0.41507 -1.31895,0.90592 -1.84225,1.49664 -4.15032,4.68503 -3.5032,11.07589 1.49554,14.65284 2.49845,1.78779 4.42683,2.22699 7.36832,1.69982 2.76882,-0.49619 2.88042,-0.56807 4.76426,-2.49806 1.81256,-1.85696 3.08656,-5.1183 2.95842,-7.62588 -0.12334,-2.41278 -2.31705,-6.13721 -4.5499,-7.69325 -2.78758,-1.9425 -7.15648,-1.82985 -10.19435,-0.0321 z m -35.50245,38.07045 c -3.57563,2.8564 -5.46887,6.95359 -4.35337,11.20975 2.36141,8.69062 14.27161,9.90439 18.06238,1.65996 2.55935,-5.56621 0.0398,-9.39777 -3.31461,-12.30356 -2.1858,-1.89348 -6.07855,-2.99913 -10.3944,-0.56615 z m 29.95854,-15.67278 c -0.69181,0.3724 -1.31364,0.84677 -1.86206,1.39982 -6.70912,6.76512 -1.68007,17.4937 7.81871,16.66741 2.90065,-0.25233 4.07562,-0.8247 5.90204,-2.90237 1.56016,-1.77463 2.65229,-4.95873 2.53684,-7.41856 -0.10572,-2.25148 -2.29624,-6.0121 -4.23014,-7.26443 -3.05765,-1.98003 -7.16745,-2.09557 -10.16535,-0.48189 z m -6.1778,22.79974 c -4.16065,2.52734 -6.18385,8.10991 -3.3648,12.98449 3.45018,5.96589 11.10498,6.91257 15.50138,1.91168 4.96052,-5.64263 1.90903,-14.74485 -5.38967,-16.08517 -2.52928,-0.4645 -4.8557,0.0402 -6.74691,1.189 z"
         style="fill:#cc0000;fill-opacity:1;fill-rule:nonzero;stroke:none" />
      <path
         sodipodi:nodetypes="ssssssssssssscscssssccssccsssssssscssccssssssssssssssssssssscssccsssscsssscccssssssscccsssssssssssscc"
         inkscape:connector-curvature="0"
         id="path3813-2"
         d="m 338.4486,849.17283 c -1.05824,0.0641 -17.29682,-4.12019 -36.0857,-9.29839 -28.97598,-7.98593 -34.41555,-9.66869 -35.83388,-11.08555 -2.25571,-2.25333 -2.92334,-3.50974 -3.29104,-6.19332 -0.38622,-2.8185 24.47964,-98.72752 26.37786,-101.74119 1.56897,-2.49079 4.81182,-4.41489 7.55102,-4.48014 2.93421,-0.07 68.24629,17.9297 70.33199,19.38307 0.94328,0.65732 2.28246,1.89298 2.97594,2.74591 2.9081,3.57675 2.91503,3.54087 -10.87594,56.12211 -7.18203,27.38305 -13.45388,50.05181 -14.04908,50.77904 -1.5303,1.86952 -4.85168,3.63204 -7.10117,3.76846 z m 0.95945,-19.38825 c 4.96052,-5.64263 1.91169,-14.74789 -5.387,-16.08822 -8.09373,-1.48637 -14.20687,7.09256 -10.10643,14.18286 3.45018,5.96589 11.09703,6.90625 15.49343,1.90536 z m 5.89246,-22.51197 c 1.56016,-1.77463 2.65302,-4.97816 2.53758,-7.43799 -0.10572,-2.25148 -2.29522,-6.01263 -4.22917,-7.26493 -3.76325,-2.43697 -9.10135,-2.02791 -12.02635,0.92154 -6.70913,6.76512 -1.66325,17.50713 7.83553,16.68084 2.90065,-0.25233 4.05599,-0.82179 5.88241,-2.89946 z m -28.11775,13.35801 c 2.55935,-5.5662 0.0478,-9.38761 -3.3066,-12.2934 -2.1858,-1.89348 -6.07385,-2.98915 -10.3897,-0.55616 -3.57563,2.8564 -5.45847,6.92535 -4.34297,11.18152 2.36141,8.69062 14.24849,9.91247 18.03927,1.66804 z m 33.60572,-35.5757 c 1.81255,-1.85696 3.08151,-5.14494 2.95336,-7.65252 -0.12333,-2.41279 -2.31766,-6.10891 -4.55055,-7.66493 -3.43087,-2.39077 -9.25929,-1.67912 -12.05023,1.47133 -4.15032,4.68504 -3.49673,11.05022 1.502,14.62717 2.49846,1.78779 4.43024,2.23548 7.37173,1.70831 2.76882,-0.49619 2.88985,-0.55937 4.77369,-2.48936 z m -27.66461,4.92526 c -1.89808,-4.84669 -7.80466,-7.19617 -12.701,-5.05204 -4.55361,1.99395 -6.85986,7.46333 -5.16539,12.24987 1.81765,5.13446 8.99963,7.80876 13.76933,5.53394 4.75461,-3.17705 5.76353,-8.29464 4.09706,-12.73177 z m -29.90976,26.13617 c 1.62204,-2.1458 2.38519,-6.54045 1.547,-8.90817 -2.90856,-8.21606 -14.0533,-9.07693 -17.92813,-1.38487 -1.46877,2.91571 -1.30316,6.11423 0.48245,9.31656 3.19889,5.73684 11.89636,6.27108 15.89868,0.97648 z m 65.17804,-56.01501 c 1.34937,-2.83523 1.52106,-5.35808 0.54878,-8.06546 -1.15859,-3.22623 -3.22327,-5.04669 -6.75869,-5.95924 -5.46459,-1.41047 -10.4196,1.72363 -11.58719,7.32899 -1.74847,8.39449 6.84308,14.50265 14.3239,10.1836 1.78853,-1.03261 2.77714,-2.02531 3.4732,-3.48789 z m -59.31741,33.17305 c 2.77289,-3.91344 2.58116,-8.51358 -0.50615,-12.14263 -4.74197,-5.57399 -13.72186,-3.90135 -16.18364,3.0146 -1.03922,2.91933 -0.82663,5.34825 0.69932,7.99127 1.6557,2.86776 2.98524,3.92215 5.9813,4.74357 3.98471,1.09251 7.60341,-0.21155 10.00917,-3.60681 z m 29.48048,-17.07945 c 3.56351,-5.55036 0.0478,-13.12106 -6.74118,-14.51621 -8.82955,-1.81453 -14.82937,9.21368 -8.66424,15.92577 4.39192,4.78154 11.86988,4.09729 15.40542,-1.40956 z m -21.68046,-11.4748 c -0.72318,-6.78527 -6.2477,-10.20969 -11.2222,-9.39572 -5.82099,0.95262 -10.92371,7.22861 -6.79077,14.10215 2.30973,3.84138 6.06217,5.67756 10.41879,4.89639 2.58037,-0.54396 8.02142,-3.77565 7.59418,-9.60282 z m 27.79214,-11.57688 c 3.48847,-6.2069 -1.16933,-14.15609 -8.34331,-14.23905 -9.25086,-0.107 -13.17348,11.41453 -5.91977,17.38716 4.48429,3.69233 11.25884,2.19702 14.26308,-3.14811 z m -22.71799,-6.75123 c 1.23464,-2.91772 1.17192,-5.24472 -0.22063,-8.18888 -1.61643,-3.41744 -4.34274,-5.30324 -8.11843,-5.61564 -3.47331,-0.28734 -7.58807,2.09339 -9.10934,5.27083 -3.6867,7.69948 3.91716,16.46582 11.78072,13.58178 2.55019,-0.9353 4.76057,-2.90394 5.66778,-5.04791 z m 41.1982,-24.18994 c -1.35068,-0.37038 -2.2835,-1.07785 -2.95525,-2.24136 -1.55425,-2.69204 -6.29007,-6.72851 -9.63009,-8.20802 -5.36294,-2.37559 -13.12113,-2.14904 -17.74079,0.51812 -3.53251,2.0395 -7.48762,-0.29155 -6.67111,-3.9318 0.45603,-2.03287 3.43168,-3.90583 8.32236,-5.23805 10.68042,-2.9094 22.61449,0.77001 29.68886,9.15338 3.07823,3.6478 3.80453,5.06375 3.49784,6.81918 -0.44046,2.52112 -2.22185,3.75642 -4.51182,3.12855 z m 12.62744,-7.35396 c -1.39874,-0.38351 -2.20776,-1.05472 -3.06886,-2.54619 -1.70405,-2.95151 -6.40509,-7.89637 -9.9065,-10.42031 -6.3062,-4.5457 -14.9089,-7.03044 -22.95056,-6.62892 -3.97764,0.19852 -10.91834,2.13097 -13.95863,3.88628 -1.88265,1.08695 -2.78784,1.268 -4.28621,0.85714 -2.36895,-0.64943 -3.47855,-2.48125 -2.84268,-4.69289 0.44338,-1.54186 0.87522,-1.88633 4.79438,-3.82412 5.18114,-2.56167 10.62923,-3.86157 17.46136,-4.16637 3.92429,-0.17499 6.76201,0.23325 12.47196,1.79431 6.31472,1.72644 8.12872,2.51776 12.4489,5.43062 5.21049,3.51311 11.04735,9.4263 13.54465,13.72172 1.38743,2.3871 1.0145,5.47984 -0.78681,6.51983 -0.5618,0.32436 -1.87628,0.35531 -2.921,0.0689 z"
         style="fill:#f57900" />
    </g>
    <text
       xml:space="preserve"
       style="font-size:40px;font-style:normal;font-weight:normal;line-height:125%;letter-spacing:0px;word-spacing:0px;fill:#000000;fill-opacity:1;stroke:none;font-family:Sans"
       x="138.57143"
       y="1023.0765"
       id="text3974"
       sodipodi:linespacing="125%"><tspan
         sodipodi:role="line"
         id="tspan3976"
         x="138.57143"
         y="1023.0765" /></text>
  </g>
</svg>
